<?xml version="1.0" encoding="utf-8"?>
<!-- Generator: Adobe Illustrator 16.0.5, SVG Export Plug-In . SVG Version: 6.00 Build 0)  -->
<!DOCTYPE svg PUBLIC "-//W3C//DTD SVG 1.1//EN" "http://www.w3.org/Graphics/SVG/1.1/DTD/svg11.dtd">
<svg version="1.1" id="Layer_1" xmlns="http://www.w3.org/2000/svg" xmlns:xlink="http://www.w3.org/1999/xlink" x="0px" y="0px"
	 width="18px" height="26px" viewBox="0 0 18 26" enable-background="new 0 0 18 26" xml:space="preserve">
<path fill="#D22630" d="M9,2C5.141,2,2,5.141,2,9c0,3.52,2.613,6.434,6,6.92V23c0,0.553,0.447,1,1,1c0.553,0,1-0.447,1-1v-7.08
	c3.387-0.486,6-3.4,6-6.92C16,5.141,12.859,2,9,2z"/>
<path fill="#FFFFFF" d="M9,0C4.038,0,0,4.038,0,9c0,3.842,2.482,7.225,6,8.477V23c0,1.654,1.346,3,3,3c1.654,0,3-1.346,3-3v-5.523
	c3.518-1.252,6-4.635,6-8.477C18,4.038,13.963,0,9,0z M10,15.92V23c0,0.553-0.447,1-1,1c-0.553,0-1-0.447-1-1v-7.08
	C4.613,15.434,2,12.52,2,9c0-3.859,3.141-7,7-7c3.859,0,7,3.141,7,7C16,12.52,13.387,15.434,10,15.92z"/>
</svg>
