<?xml version="1.0" encoding="utf-8"?>
<!-- Generator: Adobe Illustrator 16.0.5, SVG Export Plug-In . SVG Version: 6.00 Build 0)  -->
<!DOCTYPE svg PUBLIC "-//W3C//DTD SVG 1.1//EN" "http://www.w3.org/Graphics/SVG/1.1/DTD/svg11.dtd">
<svg version="1.1" id="Layer_1" xmlns="http://www.w3.org/2000/svg" xmlns:xlink="http://www.w3.org/1999/xlink" x="0px" y="0px"
	 width="11px" height="15px" viewBox="0 0 11 15" enable-background="new 0 0 11 15" xml:space="preserve">
<path fill="#702082" d="M5.5,2C3.57,2,2,3.57,2,5.5c0,1.76,1.307,3.217,3,3.46v3.54C5,12.776,5.224,13,5.5,13S6,12.776,6,12.5V8.96
	c1.693-0.243,3-1.7,3-3.46C9,3.57,7.43,2,5.5,2z"/>
<path fill="#FFFFFF" d="M5.5,0C2.467,0,0,2.467,0,5.5c0,2.098,1.21,3.971,3,4.892V12.5C3,13.879,4.122,15,5.5,15
	C6.879,15,8,13.879,8,12.5v-2.108c1.79-0.921,3-2.794,3-4.892C11,2.467,8.532,0,5.5,0z M6,8.96v3.54C6,12.776,5.776,13,5.5,13
	S5,12.776,5,12.5V8.96C3.307,8.717,2,7.26,2,5.5C2,3.57,3.57,2,5.5,2S9,3.57,9,5.5C9,7.26,7.693,8.717,6,8.96z"/>
</svg>
