<?xml version="1.0" encoding="utf-8"?>
<!-- Generator: Adobe Illustrator 16.0.5, SVG Export Plug-In . SVG Version: 6.00 Build 0)  -->
<!DOCTYPE svg PUBLIC "-//W3C//DTD SVG 1.1//EN" "http://www.w3.org/Graphics/SVG/1.1/DTD/svg11.dtd">
<svg version="1.1" id="Layer_3" xmlns="http://www.w3.org/2000/svg" xmlns:xlink="http://www.w3.org/1999/xlink" x="0px" y="0px"
	 width="20px" height="32px" viewBox="0 0 20 32" enable-background="new 0 0 20 32" xml:space="preserve">
<path fill="#FFFFFF" d="M10,4c3.859,0,7,3.14,7,7c0,3.52-2.613,6.513-6,7v9c0,0.553-0.447,1-1,1s-1-0.447-1-1v-9
	c-3.387-0.487-6-3.48-6-7C3,7.14,6.141,4,10,4 M10,2c-4.962,0-9,4.038-9,9c0,3.881,2.482,7.294,6,8.554V27c0,1.654,1.346,3,3,3
	s3-1.346,3-3v-7.446c3.518-1.26,6-4.672,6-8.554C19,6.038,14.963,2,10,2L10,2z"/>
<path fill="#702082" d="M17,11c0-3.86-3.141-7-7-7s-7,3.14-7,7c0,3.52,2.613,6.513,6,7v9c0,0.553,0.447,1,1,1s1-0.447,1-1v-9
	C14.387,17.513,17,14.52,17,11z"/>
</svg>
