<?xml version="1.0" encoding="utf-8"?>
<!-- Generator: Adobe Illustrator 16.0.5, SVG Export Plug-In . SVG Version: 6.00 Build 0)  -->
<!DOCTYPE svg PUBLIC "-//W3C//DTD SVG 1.1//EN" "http://www.w3.org/Graphics/SVG/1.1/DTD/svg11.dtd">
<svg version="1.1" id="Layer_1" xmlns="http://www.w3.org/2000/svg" xmlns:xlink="http://www.w3.org/1999/xlink" x="0px" y="0px"
	 width="32px" height="32px" viewBox="0 0 32 32" enable-background="new 0 0 32 32" xml:space="preserve">
<circle opacity="0.3" fill="#00A3E0" cx="16" cy="16" r="14"/>
<path fill="#00A3E0" d="M16,10c-3.309,0-6,2.691-6,6s2.691,6,6,6s6-2.691,6-6S19.309,10,16,10z"/>
<path fill="#FFFFFF" d="M16,24c-4.411,0-8-3.589-8-8s3.589-8,8-8s8,3.589,8,8S20.411,24,16,24z M16,10c-3.309,0-6,2.691-6,6
	s2.691,6,6,6s6-2.691,6-6S19.309,10,16,10z"/>
<path fill="#00A3E0" d="M16,25c-0.944,0-1.854-0.147-2.709-0.418L16,30l2.709-5.418C17.854,24.853,16.944,25,16,25z"/>
</svg>
